<svg width="100" height="100" version="1.1" viewBox="0 0 26.458 26.458" xml:space="preserve" xmlns="http://www.w3.org/2000/svg"><path d="m13.227 0.26458c-7.1523 0-12.962 5.811-12.962 12.965 0 7.1535 5.81 12.965 12.962 12.965 7.1523 0 12.967-5.811 12.967-12.965 0-7.1535-5.8145-12.965-12.967-12.965zm0 1.1438c0.24871 0 0.58544 0.18491 0.96996 0.73152 0.27548 0.3916 0.54811 0.94655 0.79971 1.6266-0.57887-0.057865-1.1695-0.089619-1.7697-0.089619-0.59978 0-1.19 0.031827-1.7686 0.089619 0.25284-0.68009 0.52758-1.235 0.80308-1.6266 0.38453-0.54661 0.71677-0.73152 0.96548-0.73152zm-2.099 0.37416c-0.35911 0.58636-0.66889 1.313-0.94084 2.1576-0.96 0.16911-1.879 0.4174-2.7441 0.73488 1.033-1.3831 2.2934-2.3859 3.685-2.8925zm4.2036 0.00112c1.392 0.50737 2.6537 1.5107 3.6861 2.8936-0.8654-0.31803-1.7848-0.56648-2.7452-0.736-0.27185-0.84455-0.58188-1.5712-0.94084-2.1576zm3.7074 1.1482c1.8719 1.0582 3.4254 2.6111 4.4836 4.4832-0.36877-0.35474-0.77002-0.68771-1.1985-0.99814-0.43946-0.31842-0.90781-0.61353-1.4034-0.88275-0.26918-0.4957-0.56423-0.96413-0.8826-1.4037-0.31067-0.4289-0.64404-0.82977-0.99908-1.1987zm-11.626 0.0022332c-0.35423 0.36827-0.68682 0.76841-0.99684 1.1964-0.31855 0.43979-0.61354 0.90877-0.8826 1.4048-0.49513 0.26903-0.96435 0.56349-1.4034 0.88163-0.42639 0.30896-0.82464 0.6408-1.1917 0.99366 1.0567-1.8686 2.6068-3.4193 4.4746-4.4765zm5.8142 1.891c0.73566 0 1.4549 0.048037 2.1527 0.14003 0.32042 1.1637 0.5763 2.5567 0.74371 4.1012-0.93083-0.065294-1.8995-0.10082-2.8964-0.10082-0.99614 0-1.9641 0.035639-2.8942 0.10082 0.16633-1.5445 0.42126-2.9376 0.74147-4.1012 0.69784-0.091996 1.4171-0.14003 2.1527-0.14003zm-3.3915 0.354c-0.29171 1.178-0.51782 2.5246-0.66643 3.9869-1.4615 0.14843-2.8075 0.37399-3.9851 0.66542 0.26813-1.2517 0.6795-2.4145 1.2052-3.4504 1.035-0.52439 2.1964-0.93464 3.4464-1.202zm6.7875 0.00112c1.2506 0.26791 2.4123 0.67911 3.4475 1.2043 0.52506 1.0354 0.93619 2.1972 1.2041 3.4481-1.1775-0.29164-2.5234-0.51795-3.9851-0.66654-0.14858-1.462-0.37484-2.8081-0.66643-3.9858zm-11.945 2.2562c-0.31743 0.86551-0.56459 1.7852-0.73363 2.7457-0.84584 0.27236-1.5706 0.58342-2.1572 0.94324 0.5061-1.393 1.5073-2.656 2.8909-3.689zm17.1 0.00112c1.3827 1.0326 2.3858 2.2945 2.8931 3.6867-0.58634-0.35902-1.3128-0.6691-2.1572-0.941-0.16949-0.96059-0.4179-1.8802-0.73587-2.7457zm-8.5505 2.6751c1.0371 0 2.0436 0.03917 3.004 0.11203 0.07282 0.96058 0.11201 1.9672 0.11201 3.0045 0 1.0365-0.03928 2.0418-0.11201 3.0011-0.96041 0.07229-1.9669 0.1109-3.004 0.1109-1.0359 0-2.0406-0.03876-2.9995-0.1109-0.07218-0.95936-0.11201-1.9646-0.11201-3.0011 0-1.0373 0.03973-2.0439 0.11201-3.0045 0.95886-0.07269 1.9636-0.11203 2.9995-0.11203zm-4.1576 0.21845c-0.065327 0.93133-0.10081 1.9006-0.10081 2.8981 0 0.99671 0.035567 1.9652 0.10081 2.8958-1.5441-0.16636-2.9367-0.42228-4.1005-0.74272-0.091979-0.69796-0.14113-1.4173-0.14113-2.1531 0-0.73579 0.049149-1.4552 0.14113-2.1531 1.1638-0.32065 2.5564-0.57753 4.1005-0.74496zm8.3197 0.0011c1.5443 0.16744 2.937 0.42336 4.1005 0.74384 0.09198 0.69796 0.14002 1.4173 0.14002 2.1531s-0.04803 1.4552-0.14002 2.1531c-1.1635 0.32027-2.5562 0.57523-4.1005 0.7416 0.06517-0.93031 0.10081-1.8984 0.10081-2.8947 0-0.99711-0.03552-1.966-0.10081-2.897zm-13.62 1.127c-0.057651 0.57897-0.088483 1.1697-0.088483 1.77 0 0.59946 0.029863 1.1895 0.087362 1.7677-0.67889-0.25265-1.233-0.52687-1.6241-0.80209-0.54652-0.3846-0.73251-0.7169-0.73251-0.96565 0-0.24875 0.18599-0.58554 0.73251-0.97013 0.39134-0.27539 0.94572-0.54831 1.6252-0.79985zm18.92 0c0.67947 0.25154 1.2339 0.52446 1.6252 0.79985 0.54652 0.38459 0.73251 0.72138 0.73251 0.97013 0 0.24875-0.18599 0.58106-0.73251 0.96565-0.39136 0.2754-0.94568 0.55043-1.6252 0.80322 0.05778-0.57859 0.08847-1.169 0.08847-1.7689 0-0.60024-0.03063-1.191-0.08847-1.77zm-20.904 3.8682c0.58673 0.36012 1.312 0.67072 2.1583 0.94325 0.16863 0.96007 0.41453 1.8794 0.73139 2.7446-1.3837-1.0336-2.3844-2.2952-2.8897-3.6878zm22.886 0.0011c-0.50647 1.3918-1.5091 2.6524-2.892 3.6856 0.31743-0.8653 0.56567-1.7844 0.73476-2.7446 0.84446-0.272 1.571-0.58183 2.1572-0.941zm-3.396 1.2928c-0.26734 1.2503-0.67752 2.4118-1.2018 3.447-1.0356 0.52574-2.1983 0.9372-3.4498 1.2054 0.29131-1.1777 0.51694-2.5242 0.66531-3.9858 1.4621-0.14865 2.8085-0.37478 3.9863-0.66655zm-16.093 0.0011c1.1779 0.29156 2.5243 0.51694 3.9863 0.66542 0.1484 1.462 0.37387 2.809 0.66531 3.9869-1.2508-0.26761-2.4132-0.67813-3.4486-1.2031-0.5249-1.0357-0.93532-2.1981-1.2029-3.4492zm5.1489 0.76513c0.93049 0.06523 1.8988 0.10082 2.8953 0.10082 0.99733 0 1.9664-0.03549 2.8976-0.10082-0.16741 1.5448-0.42417 2.9369-0.74483 4.1012-0.69784 0.092-1.4171 0.14115-2.1527 0.14115s-1.4549-0.04915-2.1527-0.14115c-0.32046-1.1643-0.57626-2.5564-0.74259-4.1012zm13.189 1.6568c-1.057 1.8681-2.6075 3.4185-4.4757 4.4754 0.35279-0.36715 0.68458-0.76547 0.99348-1.1919 0.31809-0.43915 0.6125-0.90846 0.88148-1.4037 0.49593-0.26911 0.96483-0.56414 1.4045-0.88275 0.42776-0.30995 0.82792-0.6429 1.1962-0.99702zm-20.58 0.0057c0.36646 0.35204 0.76398 0.6831 1.1895 0.99142 0.43932 0.31832 0.9091 0.61271 1.4045 0.88163 0.26887 0.49553 0.56321 0.96539 0.88148 1.4048 0.30826 0.42559 0.63927 0.82318 0.99124 1.1897-0.26961-0.15274-0.53379-0.31455-0.78963-0.48733-0.078569-0.053046-0.15577-0.10754-0.23297-0.16243-1.4094-1.0019-2.5882-2.3061-3.4442-3.8178zm16.078 2.73c-1.0328 1.3838-2.2956 2.3852-3.6883 2.8914 0.35977-0.58668 0.67078-1.3116 0.94308-2.1576 0.96039-0.16907 1.8799-0.41628 2.7452-0.73376zm-11.577 0.0022c0.86506 0.31692 1.7842 0.56286 2.7441 0.73152 0.27248 0.84648 0.58302 1.5719 0.94308 2.1587-1.3924-0.50543-2.6538-1.5063-3.6872-2.8903zm7.5547 0.90628c-0.2515 0.67958-0.52437 1.2341-0.79971 1.6255-0.38453 0.54661-0.72125 0.73264-0.96996 0.73264-0.24871 0-0.58096-0.18602-0.96548-0.73264-0.27517-0.39116-0.54935-0.94535-0.80196-1.6244 0.57812 0.05752 1.1681 0.08739 1.7674 0.08739 0.60016 0 1.1908-0.03083 1.7697-0.08849z" color="#000000" fill="#fff" stroke-linecap="round" stroke-miterlimit="100" stroke-width=".52917"/></svg>
