<?xml version="1.0" encoding="UTF-8" standalone="no"?>
<svg
   height="16"
   viewBox="0 0 16 16"
   width="16"
   version="1.1"
   id="svg1396"
   sodipodi:docname="AudioStreamPlayer2D.svg"
   xml:space="preserve"
   inkscape:version="1.2.1 (9c6d41e410, 2022-07-14)"
   xmlns:inkscape="http://www.inkscape.org/namespaces/inkscape"
   xmlns:sodipodi="http://sodipodi.sourceforge.net/DTD/sodipodi-0.dtd"
   xmlns="http://www.w3.org/2000/svg"
   xmlns:svg="http://www.w3.org/2000/svg"><defs
     id="defs1400" /><sodipodi:namedview
     id="namedview1398"
     pagecolor="#505050"
     bordercolor="#eeeeee"
     borderopacity="1"
     inkscape:showpageshadow="0"
     inkscape:pageopacity="0"
     inkscape:pagecheckerboard="0"
     inkscape:deskcolor="#505050"
     showgrid="false"
     inkscape:zoom="14.75"
     inkscape:cx="6.779661"
     inkscape:cy="8.0338983"
     inkscape:window-width="1366"
     inkscape:window-height="705"
     inkscape:window-x="-8"
     inkscape:window-y="-8"
     inkscape:window-maximized="1"
     inkscape:current-layer="svg1396" /><linearGradient
     id="a"
     gradientUnits="userSpaceOnUse"
     x1="8"
     x2="8"
     y1="1"
     y2="15"><stop
       offset="0"
       stop-color="#ff5f5f"
       id="stop1385" /><stop
       offset=".5"
       stop-color="#e1da5b"
       id="stop1387" /><stop
       offset="1"
       stop-color="#5fff97"
       id="stop1389" /></linearGradient><path
     d="M 1.9999998,2 A 1,1 0 0 0 0.99999979,3 V 13 A 1,1 0 0 0 1.9999998,14 H 14 a 1,1 0 0 0 1,-1 V 6 A 1,1 0 0 0 14,5 H 9.9999998 a 1,1 0 0 1 -1,-1 V 3 a 1,1 0 0 0 -1,-1 z"
     fill="#e0e0e0"
     id="path1528" /><path
     d="M9 14a1 1 0 0 0 1.5.85l4-2.511a1 1 0 0 0 0-1.724l-4-2.511a1 1 0 0 0-1.5.85z"
     fill="#8da5f3"
     id="path1392" /><path
     d="M12 1 4.754 3A1 1 0 0 0 4 4v5.55A2.5 2.5 0 1 0 6 12V4.756l5-1.428V6.5l2-1V2a1 1 0 0 0-1-1z"
     fill="url(#a)"
     id="path1394" /></svg>
