<?xml version="1.0" encoding="UTF-8" standalone="no"?>
<svg
   height="16"
   viewBox="0 0 16 16"
   width="16"
   version="1.1"
   id="svg13"
   sodipodi:docname="AudioStreamPlayer.svg"
   xml:space="preserve"
   inkscape:version="1.2.1 (9c6d41e410, 2022-07-14)"
   xmlns:inkscape="http://www.inkscape.org/namespaces/inkscape"
   xmlns:sodipodi="http://sodipodi.sourceforge.net/DTD/sodipodi-0.dtd"
   xmlns="http://www.w3.org/2000/svg"
   xmlns:svg="http://www.w3.org/2000/svg"><defs
     id="defs17" /><sodipodi:namedview
     id="namedview15"
     pagecolor="#505050"
     bordercolor="#eeeeee"
     borderopacity="1"
     inkscape:showpageshadow="0"
     inkscape:pageopacity="0"
     inkscape:pagecheckerboard="0"
     inkscape:deskcolor="#505050"
     showgrid="false"
     inkscape:zoom="14.75"
     inkscape:cx="7.2542373"
     inkscape:cy="13.79661"
     inkscape:window-width="1366"
     inkscape:window-height="705"
     inkscape:window-x="-8"
     inkscape:window-y="-8"
     inkscape:window-maximized="1"
     inkscape:current-layer="svg13" /><linearGradient
     id="a"
     gradientUnits="userSpaceOnUse"
     x1="8"
     x2="8"
     y1="1"
     y2="15"><stop
       offset="0"
       stop-color="#ff5f5f"
       id="stop2" /><stop
       offset=".5"
       stop-color="#e1da5b"
       id="stop4" /><stop
       offset="1"
       stop-color="#5fff97"
       id="stop6" /></linearGradient><path
     d="M 2,1.9999999 A 1,1 0 0 0 1,3 v 10 a 1,1 0 0 0 1,1 h 12 a 1,1 0 0 0 1,-1 V 5.9999999 a 1,1 0 0 0 -1,-1 h -4 a 1,1 0 0 1 -1,-1 v -1 a 1,1 0 0 0 -1,-1 z"
     fill="#e0e0e0"
     id="path258" /><path
     d="M9 14a1 1 0 0 0 1.5.85l4-2.511a1 1 0 0 0 0-1.724l-4-2.511a1 1 0 0 0-1.5.85z"
     fill="#e0e0e0"
     id="path9"
     style="fill:#383838;fill-opacity:1" /><path
     d="M12 1 4.754 3A1 1 0 0 0 4 4v5.55A2.5 2.5 0 1 0 6 12V4.756l5-1.428V6.5l2-1V2a1 1 0 0 0-1-1z"
     fill="url(#a)"
     id="path11" /></svg>
