<svg width="16" height="16" version="1.1" viewBox="0 0 16 16" xml:space="preserve" xmlns="http://www.w3.org/2000/svg"><path d="m6.3099 8.2276a3.8862 3.8862 0 0 0 0 7.7724h0.77724v-1.5545h-0.77724a2.3317 2.3317 0 0 1 0-4.6634h0.77724v-1.5545zm2.3317 0v1.5545h0.77724a2.3317 2.3317 0 0 1 0 4.6634h-0.77724v1.5545h0.77724a3.8862 3.8862 0 0 0 0-7.7724zm-2.3317 3.109a0.77724 0.77724 0 0 0 0 1.5545h3.109a0.77724 0.77724 0 0 0 0-1.5545z" fill="#e0e0e0"/><path d="m7.2768 1.1973e-8 -0.33172 1.3269a2.9384 2.9384 0 0 0-0.40518 0.16414l-1.1685-0.70135-0.83105 0.83105 0.70246 1.1719a2.9384 2.9384 0 0 0-0.16758 0.40289l-1.3246 0.33057v1.1754l1.3269 0.33172a2.9384 2.9384 0 0 0 0.16414 0.40404l-0.70135 1.1696 0.83105 0.83105 1.1719-0.70246a2.9384 2.9384 0 0 0 0.40289 0.16758l0.33057 1.3246h1.1754l0.33172-1.3269a2.9384 2.9384 0 0 0 0.40404-0.16414l1.1696 0.70135 0.83105-0.83105-0.70246-1.1719a2.9384 2.9384 0 0 0 0.16758-0.40289l1.3246-0.33057v-1.1754l-1.3269-0.33172a2.9384 2.9384 0 0 0-0.16414-0.40404l0.70134-1.1696-0.83105-0.83105-1.1719 0.70246a2.9384 2.9384 0 0 0-0.40289-0.16759l-0.33057-1.3246h-1.1754zm0.58769 2.9384a1.1754 1.1754 0 0 1 1.1754 1.1754 1.1754 1.1754 0 0 1-1.1754 1.1754 1.1754 1.1754 0 0 1-1.1754-1.1754 1.1754 1.1754 0 0 1 1.1754-1.1754z" fill="#e0e0e0"/></svg>
